<svg width="143" height="76" viewBox="0 0 143 76" fill="none" xmlns="http://www.w3.org/2000/svg">
<path d="M63.7719 45.8376H54.7645V50.3502H63.7719C64.9728 50.3502 66.0537 51.3001 66.0537 52.6064C66.0537 53.9127 65.0929 54.8627 63.7719 54.8627H7.56616C6.36518 54.8627 5.2843 55.8126 5.2843 57.1189C5.2843 58.3064 6.24508 59.3752 7.56616 59.3752H63.892C67.615 59.3752 70.6174 56.4064 70.6174 52.7252C70.6174 48.8064 67.4949 45.8376 63.7719 45.8376Z" fill="#34495E"/>
<path d="M65.4533 30.5188L61.0096 30.1625C61.0096 30.0438 63.7719 13.7751 64.3724 10.45C64.7327 8.55005 65.4533 3.2063 72.2988 3.2063V7.7188C69.5366 7.7188 69.1763 8.78755 68.9361 10.8063C68.2155 14.1313 65.4533 30.2813 65.4533 30.5188Z" fill="#34495E"/>
<path d="M65.6934 14.6062H4.80389C2.52204 14.6062 2.16174 16.7437 2.52203 17.9312L9.3676 48.0937C9.7279 49.2812 10.9289 50.2312 12.2499 50.2312H60.0488C61.2498 50.2312 62.4508 49.2812 62.691 47.975L67.7351 16.7437C67.8552 15.675 66.8944 14.6062 65.6934 14.6062ZM8.28672 24.7L7.08575 20.1875C6.96565 19.5937 7.32594 19.1187 7.92643 19.1187H16.4534C17.0539 19.1187 17.6543 19.5937 17.6543 20.1875L18.1347 24.7C18.2548 25.2937 17.7744 25.7687 17.1739 25.7687H9.6078C9.00731 25.7687 8.40682 25.2937 8.28672 24.7ZM12.1298 35.7437C11.5294 35.7437 10.9289 35.2687 10.6887 34.675L9.84799 31.2312C9.72789 30.6375 10.0882 30.1625 10.6887 30.1625H17.5342C18.1347 30.1625 18.7352 30.6375 18.7352 31.2312L19.0955 34.5562C19.2156 35.15 18.7352 35.625 18.1347 35.625C18.2548 35.7437 12.1298 35.7437 12.1298 35.7437ZM19.3357 45.8375H14.6519C14.0514 45.8375 13.4509 45.3625 13.2107 44.7687L12.37 41.325C12.2499 40.7312 12.6102 40.2562 13.2107 40.2562H18.6151C19.2156 40.2562 19.8161 40.7312 19.8161 41.325L20.1764 44.65C20.4166 45.2437 19.9362 45.8375 19.3357 45.8375ZM33.1469 44.65C33.1469 45.2437 32.6665 45.7187 32.0661 45.7187H26.1813C25.5808 45.7187 24.9803 45.2437 24.9803 44.65L24.62 41.325C24.4999 40.7312 24.9803 40.2562 25.5808 40.2562H32.0661C32.6665 40.2562 33.1469 40.7312 33.1469 41.325V44.65ZM33.1469 34.675C33.1469 35.2687 32.6665 35.7437 32.0661 35.7437H25.1004C24.4999 35.7437 23.8994 35.2687 23.8994 34.675L23.5391 31.35C23.419 30.7562 23.8994 30.2812 24.4999 30.2812H32.0661C32.6665 30.2812 33.1469 30.7562 33.1469 31.35V34.675ZM33.1469 24.7C33.1469 25.2937 32.6665 25.7687 32.0661 25.7687H24.0195C23.419 25.7687 22.8185 25.2937 22.8185 24.7L22.2181 20.1875C22.098 19.5937 22.5783 19.1187 23.1788 19.1187H31.946C32.5465 19.1187 33.0268 19.5937 33.0268 20.1875C33.1469 20.1875 33.1469 24.7 33.1469 24.7ZM45.3969 44.65C45.2768 45.2437 44.7964 45.7187 44.1959 45.7187H38.9116C38.3111 45.7187 37.8307 45.2437 37.8307 44.65V41.325C37.8307 40.7312 38.3111 40.2562 38.9116 40.2562H44.7964C45.3969 40.2562 45.8773 40.7312 45.7572 41.325L45.3969 44.65ZM46.4778 34.675C46.3577 35.2687 45.8773 35.7437 45.2768 35.7437H38.9116C38.3111 35.7437 37.8307 35.2687 37.8307 34.675V31.35C37.8307 30.7562 38.3111 30.2812 38.9116 30.2812H45.8773C46.4778 30.2812 46.9582 30.7562 46.8381 31.35L46.4778 34.675ZM47.5587 24.7C47.4386 25.2937 46.9582 25.7687 46.3577 25.7687H38.9116C38.3111 25.7687 37.8307 25.2937 37.8307 24.7V20.1875C37.8307 19.5937 38.3111 19.1187 38.9116 19.1187H47.0783C47.6788 19.1187 48.1591 19.5937 48.0391 20.1875L47.5587 24.7ZM58.0072 44.65C57.8871 45.2437 57.2866 45.7187 56.6861 45.7187H50.9214C50.3209 45.7187 49.8405 45.2437 49.9606 44.65L50.3209 41.325C50.441 40.7312 50.9214 40.2562 51.5219 40.2562H57.6469C58.2473 40.2562 58.7277 40.7312 58.6076 41.325L58.0072 44.65ZM59.5684 34.675C59.4483 35.2687 58.8478 35.7437 58.2473 35.7437H51.8822C51.2817 35.7437 50.8013 35.2687 50.9214 34.675L51.2817 31.35C51.4018 30.7562 51.8822 30.2812 52.4827 30.2812H59.088C59.6885 30.2812 60.1689 30.7562 60.0488 31.35L59.5684 34.675ZM61.1297 24.7C61.0096 25.2937 60.4091 25.7687 59.8086 25.7687H52.9631C52.3626 25.7687 51.8822 25.2937 52.0023 24.7L52.4827 20.1875C52.6028 19.5937 53.0832 19.1187 53.6836 19.1187H60.7694C61.3699 19.1187 61.8503 19.5937 61.7302 20.1875L61.1297 24.7Z" fill="#34495E"/>
<path d="M14.772 73.625C18.4864 73.625 21.4975 70.6476 21.4975 66.975C21.4975 63.3023 18.4864 60.325 14.772 60.325C11.0577 60.325 8.04657 63.3023 8.04657 66.975C8.04657 70.6476 11.0577 73.625 14.772 73.625Z" fill="#34495E"/>
<path d="M14.772 70.2999C16.6292 70.2999 18.1348 68.8113 18.1348 66.9749C18.1348 65.1386 16.6292 63.6499 14.772 63.6499C12.9149 63.6499 11.4093 65.1386 11.4093 66.9749C11.4093 68.8113 12.9149 70.2999 14.772 70.2999Z" fill="#34495E"/>
<path d="M55.365 73.625C59.0794 73.625 62.0905 70.6476 62.0905 66.975C62.0905 63.3023 59.0794 60.325 55.365 60.325C51.6506 60.325 48.6395 63.3023 48.6395 66.975C48.6395 70.6476 51.6506 73.625 55.365 73.625Z" fill="#34495E"/>
<path d="M58.7277 66.9749C58.7277 68.8749 57.1665 70.2999 55.365 70.2999C53.4434 70.2999 52.0023 68.7562 52.0023 66.9749C52.0023 65.0749 53.5635 63.6499 55.365 63.6499C57.1665 63.6499 58.7277 65.0749 58.7277 66.9749Z" fill="#34495E"/>
<path d="M73.3797 2.375H70.017V9.025H73.3797C73.9802 9.025 74.4606 8.55 74.4606 7.95625V3.44375C74.4606 2.85 73.9802 2.375 73.3797 2.375Z" fill="#34495E"/>
<path d="M14.772 58.0688C9.84803 58.0688 5.76471 62.1063 5.76471 66.9751H23.7794C23.7794 61.9876 19.8161 58.0688 14.772 58.0688Z" fill="#34495E"/>
<path d="M55.365 58.0688C50.441 58.0688 46.3577 62.1063 46.3577 66.9751H64.3724C64.3724 61.9876 60.289 58.0688 55.365 58.0688Z" fill="#34495E"/>
<path d="M84.4752 66.4815L55.4125 73.4666H126.512C128.848 73.4666 136.052 74.4191 139.425 66.4815C142.124 60.1315 134.989 50.2889 132.74 47.4314C136.113 44.2564 135.594 32.1913 128.069 30.6038C122.049 29.3337 119.16 34.3079 118.468 36.9538C115.354 34.0963 111.462 30.9212 104.456 34.0963C98.8509 36.6363 97.6226 43.4097 97.7091 46.4789C94.0763 44.8913 92.0004 44.8913 88.8865 46.4789C85.7727 48.0664 83.4373 52.1939 82.3993 57.2739C81.5689 61.338 83.4373 65.1057 84.4752 66.4815Z" fill="#34495E"/>
<path d="M141.796 48.0866C140.886 45.3082 137.35 40.704 130.487 44.5144C131.397 51.3942 134.465 64.1218 139.456 59.9939C144.447 55.866 143.096 50.3357 141.796 48.0866Z" fill="#34495E"/>
</svg>
