<svg width="205" height="60" viewBox="0 0 205 60" fill="none" xmlns="http://www.w3.org/2000/svg">
<path d="M24.66 45.36C22.22 45.36 20.42 44.72 19.26 43.44C18.14 42.12 17.58 40.5 17.58 38.58C17.58 37.74 17.68 36.8 17.88 35.76C18.08 34.68 18.28 33.64 18.48 32.64C18.72 31.64 18.88 31 18.96 30.72C19.28 29.32 19.58 27.94 19.86 26.58C20.14 25.22 20.28 24.12 20.28 23.28C20.28 21.24 19.56 20.22 18.12 20.22C17.08 20.22 16.16 20.74 15.36 21.78C14.56 22.78 13.92 24.1 13.44 25.74L9.36 45H0.72L9.42 4.2L18.3 3L15.06 18.12C17.06 15.88 19.4 14.76 22.08 14.76C24.12 14.76 25.74 15.32 26.94 16.44C28.14 17.56 28.74 19.26 28.74 21.54C28.74 22.7 28.6 24 28.32 25.44C28.04 26.84 27.64 28.56 27.12 30.6C26.8 31.84 26.5 33.06 26.22 34.26C25.98 35.42 25.86 36.34 25.86 37.02C25.86 37.82 26.04 38.44 26.4 38.88C26.76 39.32 27.38 39.54 28.26 39.54C29.46 39.54 30.42 39.12 31.14 38.28C31.86 37.4 32.58 36.06 33.3 34.26H35.82C34.34 38.66 32.62 41.62 30.66 43.14C28.74 44.62 26.74 45.36 24.66 45.36ZM42.053 45.24C39.093 45.24 36.753 44.48 35.033 42.96C33.313 41.44 32.453 39.04 32.453 35.76C32.453 33.04 33.013 30.02 34.133 26.7C35.253 23.38 37.053 20.52 39.533 18.12C42.013 15.68 45.133 14.46 48.893 14.46C54.013 14.46 56.573 17.66 56.573 24.06V24.12C56.693 24.16 56.913 24.18 57.233 24.18C58.553 24.18 60.073 23.84 61.793 23.16C63.513 22.44 65.073 21.58 66.473 20.58L67.013 22.2C65.853 23.44 64.333 24.5 62.453 25.38C60.613 26.22 58.593 26.82 56.393 27.18C56.073 30.82 55.253 34 53.933 36.72C52.613 39.44 50.913 41.54 48.833 43.02C46.753 44.5 44.493 45.24 42.053 45.24ZM44.453 39.84C45.413 39.84 46.373 39.3 47.333 38.22C48.293 37.1 49.133 35.6 49.853 33.72C50.573 31.8 51.093 29.68 51.413 27.36C50.333 27.12 49.793 26.28 49.793 24.84C49.793 23.2 50.413 22.12 51.653 21.6C51.573 20.28 51.373 19.38 51.053 18.9C50.733 18.38 50.173 18.12 49.373 18.12C48.053 18.12 46.773 19.08 45.533 21C44.293 22.92 43.293 25.22 42.533 27.9C41.773 30.58 41.393 32.94 41.393 34.98C41.393 36.9 41.613 38.2 42.053 38.88C42.493 39.52 43.293 39.84 44.453 39.84ZM82.2202 45.36C79.7402 45.36 77.8602 44.78 76.5802 43.62C75.3002 42.42 74.6602 40.72 74.6602 38.52C74.6602 37.56 74.7802 36.52 75.0202 35.4L75.5002 33.06C75.6602 32.38 75.7402 31.64 75.7402 30.84C75.7402 28.92 75.0202 27.96 73.5802 27.96C72.9402 27.96 72.2602 28.14 71.5402 28.5C70.8602 28.86 70.0602 29.42 69.1402 30.18L66.0202 45H57.3802L66.0802 4.2L74.9602 3L70.4602 24.12L82.0402 15H87.9802L75.9802 23.34C76.5802 23.18 77.2402 23.1 77.9602 23.1C80.1202 23.1 81.7602 23.76 82.8802 25.08C84.0002 26.4 84.5602 28.08 84.5602 30.12C84.5602 30.96 84.4802 31.72 84.3202 32.4L83.6602 35.4C83.4602 36.12 83.3602 36.76 83.3602 37.32C83.3602 38.8 84.1402 39.54 85.7002 39.54C86.9002 39.54 87.8602 39.12 88.5802 38.28C89.3002 37.4 90.0202 36.06 90.7402 34.26H93.2602C90.7802 41.66 87.1002 45.36 82.2202 45.36ZM99.4748 45.24C96.5148 45.24 94.1748 44.48 92.4548 42.96C90.7348 41.44 89.8748 39.04 89.8748 35.76C89.8748 33.04 90.4348 30.02 91.5548 26.7C92.6748 23.38 94.4748 20.52 96.9548 18.12C99.4348 15.68 102.555 14.46 106.315 14.46C111.435 14.46 113.995 17.66 113.995 24.06V24.12C114.115 24.16 114.335 24.18 114.655 24.18C115.975 24.18 117.495 23.84 119.215 23.16C120.935 22.44 122.495 21.58 123.895 20.58L124.435 22.2C123.275 23.44 121.755 24.5 119.875 25.38C118.035 26.22 116.015 26.82 113.815 27.18C113.495 30.82 112.675 34 111.355 36.72C110.035 39.44 108.335 41.54 106.255 43.02C104.175 44.5 101.915 45.24 99.4748 45.24ZM101.875 39.84C102.835 39.84 103.795 39.3 104.755 38.22C105.715 37.1 106.555 35.6 107.275 33.72C107.995 31.8 108.515 29.68 108.835 27.36C107.755 27.12 107.215 26.28 107.215 24.84C107.215 23.2 107.835 22.12 109.075 21.6C108.995 20.28 108.795 19.38 108.475 18.9C108.155 18.38 107.595 18.12 106.795 18.12C105.475 18.12 104.195 19.08 102.955 21C101.715 22.92 100.715 25.22 99.9548 27.9C99.1948 30.58 98.8148 32.94 98.8148 34.98C98.8148 36.9 99.0348 38.2 99.4748 38.88C99.9148 39.52 100.715 39.84 101.875 39.84ZM111.682 60C109.802 60 108.162 59.38 106.762 58.14C105.322 56.94 104.602 55.4 104.602 53.52C104.602 51.8 105.042 50.38 105.922 49.26C106.802 48.14 107.942 47.24 109.342 46.56C110.742 45.92 112.602 45.24 114.922 44.52L122.182 10.26C122.982 6.42 124.382 3.76 126.382 2.28C128.422 0.799999 130.662 0.0599992 133.102 0.0599992C134.982 0.0599992 136.622 0.679998 138.022 1.92C139.462 3.12 140.182 4.66 140.182 6.54C140.182 7.46 140.122 8.28 140.002 9H137.182C137.262 8.12 137.302 7.58 137.302 7.38C137.302 6.74 137.082 6.24 136.642 5.88C136.202 5.52 135.662 5.34 135.022 5.34C134.182 5.34 133.362 5.72 132.562 6.48C131.762 7.2 131.182 8.46 130.822 10.26L129.802 15H134.182L133.762 17.4H129.322L122.422 49.8C121.622 53.68 120.242 56.34 118.282 57.78C116.322 59.26 114.122 60 111.682 60ZM110.302 54.66C111.902 54.66 113.042 53.1 113.722 49.98L114.502 46.5C112.382 47.22 110.762 48.04 109.642 48.96C108.482 49.92 107.902 51.16 107.902 52.68C107.902 53.16 108.142 53.6 108.622 54C109.102 54.44 109.662 54.66 110.302 54.66ZM140.278 45.36C137.998 45.36 136.098 44.58 134.578 43.02C133.058 41.46 132.298 39.02 132.298 35.7C132.298 32.74 132.878 29.64 134.038 26.4C135.238 23.12 136.998 20.36 139.318 18.12C141.678 15.84 144.478 14.7 147.718 14.7C149.358 14.7 150.578 14.98 151.378 15.54C152.178 16.1 152.578 16.84 152.578 17.76V18.18L153.238 15H161.878L157.558 35.4C157.398 36 157.318 36.64 157.318 37.32C157.318 39.04 158.138 39.9 159.778 39.9C160.898 39.9 161.858 39.38 162.658 38.34C163.498 37.3 164.158 35.94 164.638 34.26H167.158C165.678 38.58 163.838 41.52 161.638 43.08C159.478 44.6 157.298 45.36 155.098 45.36C153.418 45.36 152.058 44.9 151.018 43.98C150.018 43.02 149.418 41.64 149.218 39.84C148.058 41.48 146.758 42.82 145.318 43.86C143.918 44.86 142.238 45.36 140.278 45.36ZM144.178 39.54C145.178 39.54 146.158 39.08 147.118 38.16C148.118 37.2 148.798 35.9 149.158 34.26L152.038 20.7C152.038 20.18 151.838 19.68 151.438 19.2C151.038 18.68 150.418 18.42 149.578 18.42C147.978 18.42 146.538 19.36 145.258 21.24C143.978 23.08 142.978 25.32 142.258 27.96C141.538 30.56 141.178 32.86 141.178 34.86C141.178 36.86 141.458 38.14 142.018 38.7C142.618 39.26 143.338 39.54 144.178 39.54ZM171.5 45.36C169.58 45.36 167.96 45 166.64 44.28C165.32 43.52 164.34 42.56 163.7 41.4C163.06 40.2 162.74 38.96 162.74 37.68C162.74 36.36 163.06 35.22 163.7 34.26C164.3 33.26 165.04 32.54 165.92 32.1C167.48 29.3 168.84 26.48 170 23.64C171.16 20.76 172.26 17.66 173.3 14.34L182.18 13.14C182.38 18.26 182.72 23.8 183.2 29.76C183.4 32.16 183.5 33.9 183.5 34.98C183.5 35.9 183.42 36.66 183.26 37.26C185.14 36.18 186.58 35.18 187.58 34.26H190.1C187.54 37.22 184.48 39.72 180.92 41.76C179.76 43 178.32 43.92 176.6 44.52C174.92 45.08 173.22 45.36 171.5 45.36ZM169.58 40.62C171.06 40.62 172.3 40.18 173.3 39.3C174.3 38.42 174.8 37 174.8 35.04C174.8 33.84 174.68 32.16 174.44 30C174.04 25.44 173.78 22.38 173.66 20.82C172.7 23.98 171.08 27.76 168.8 32.16C169.72 32.64 170.18 33.34 170.18 34.26C170.18 35.02 169.92 35.7 169.4 36.3C168.92 36.9 168.3 37.2 167.54 37.2C166.7 37.2 166.16 36.94 165.92 36.42C165.92 37.86 166.2 38.92 166.76 39.6C167.36 40.28 168.3 40.62 169.58 40.62ZM193.21 45.36C191.17 45.36 189.65 44.74 188.65 43.5C187.69 42.26 187.21 40.62 187.21 38.58C187.21 37.54 187.33 36.48 187.57 35.4L191.41 17.4H189.43L189.91 15H191.89L193.69 6.72L202.57 5.52C202.21 7.04 202.01 7.94 201.97 8.22C201.69 9.34 201.21 11.6 200.53 15H204.13L203.65 17.4H200.05L196.21 35.4C196.01 36.28 195.91 36.98 195.91 37.5C195.91 38.94 196.61 39.66 198.01 39.66C198.73 39.66 199.25 39.6 199.57 39.48C198.77 41.8 197.83 43.36 196.75 44.16C195.67 44.96 194.49 45.36 193.21 45.36Z" fill="#34495E"/>
</svg>
